<?xml version="1.0" encoding="UTF-8" standalone="no"?>
<!-- Created with Inkscape (http://www.inkscape.org/) -->

<svg
   xmlns:dc="http://purl.org/dc/elements/1.1/"
   xmlns:cc="http://creativecommons.org/ns#"
   xmlns:rdf="http://www.w3.org/1999/02/22-rdf-syntax-ns#"
   xmlns:svg="http://www.w3.org/2000/svg"
   xmlns="http://www.w3.org/2000/svg"
   xmlns:sodipodi="http://sodipodi.sourceforge.net/DTD/sodipodi-0.dtd"
   xmlns:inkscape="http://www.inkscape.org/namespaces/inkscape"
   width="1000"
   height="1000"
   viewBox="0 0 1000 1000"
   id="svg2"
   version="1.1"
   inkscape:version="0.91 r"
   sodipodi:docname="event_icon.svg">
  <defs
     id="defs4" />
  <sodipodi:namedview
     id="base"
     pagecolor="#3a3a3a"
     bordercolor="#666666"
     borderopacity="1.0"
     inkscape:pageopacity="0"
     inkscape:pageshadow="2"
     inkscape:zoom="0.7"
     inkscape:cx="355.7384"
     inkscape:cy="426.59843"
     inkscape:document-units="px"
     inkscape:current-layer="layer1"
     showgrid="false"
     units="px"
     inkscape:window-width="1920"
     inkscape:window-height="1017"
     inkscape:window-x="-8"
     inkscape:window-y="-8"
     inkscape:window-maximized="1" />
  <metadata
     id="metadata7">
    <rdf:RDF>
      <cc:Work
         rdf:about="">
        <dc:format>image/svg+xml</dc:format>
        <dc:type
           rdf:resource="http://purl.org/dc/dcmitype/StillImage" />
        <dc:title></dc:title>
      </cc:Work>
    </rdf:RDF>
  </metadata>
  <g
     inkscape:label="Layer 1"
     inkscape:groupmode="layer"
     id="layer1"
     transform="translate(0,-52.362161)">
    <path
       style="fill:#000000"
       d="m 389.22249,920.7204 -84.28562,-25.33956 -76.76013,-38.11077 -76.76012,-38.11078 -41.27529,-76.16491 -41.275294,-76.1649 -22.68248,-85.38634 -22.68248,-85.38635 23.03352,-67.1305 23.03352,-67.1305 32.140334,-58.15721 c 17.67717,-31.98646 32.7066,-58.7032 33.39874,-59.37053 3.01622,-2.90812 247.35557,-85.66082 252.926,-85.66082 1.08442,0 24.98346,4.11424 53.10901,9.14276 48.70407,8.70772 54.31163,9.94535 117.84817,26.01013 36.69096,9.27707 66.85823,17.0155 67.03838,17.19651 0.18015,0.18101 4.48527,24.23462 9.56693,53.45247 l 9.23939,53.12334 16.02751,43.70479 c 8.81513,24.03763 17.75594,48.50083 19.86845,54.36266 l 3.84092,10.65789 -29.45649,38.48223 -29.4565,38.48222 -16.17161,36.56578 -16.17161,36.56577 5.73123,12.88226 c 3.15218,7.08523 5.54492,13.03583 5.31721,13.22356 -0.99554,0.82071 -160.12975,69.88859 -161.02515,69.88859 -0.54811,0 -17.52906,-6.88584 -37.73547,-15.30186 l -36.73891,-15.30185 -35.88182,-34.61731 c -19.73501,-19.03953 -41.21952,-39.80991 -47.74335,-46.15642 l -11.86153,-11.5391 -7.11942,-39.18565 -7.11941,-39.18567 6.59684,-28.50082 c 5.75078,-24.84552 7.01467,-29.09484 9.85467,-33.13239 1.79181,-2.54735 9.12772,-12.79445 16.30203,-22.77134 l 13.04421,-18.13981 29.6003,-9.2605 29.60031,-9.26051 7.60968,-8.03742 7.60968,-8.03741 24.75123,1.72509 24.75122,1.72511 26.72393,14.72122 26.72395,14.72124 13.3662,16.30434 13.36622,16.30435 -2.55566,6.77386 c -1.40562,3.72563 -4.96425,13.18368 -7.90806,21.01789 -2.94382,7.83421 -6.5544,19.79976 -8.02351,26.5901 -4.9116,22.70179 -9.22095,35.38975 -17.90795,52.72609 -7.80306,15.57231 -8.301,16.3003 -11.1771,16.34106 -1.65561,0.0235 -7.33312,0.42925 -12.61669,0.90177 l -9.6065,0.85913 -11.46491,7.43154 c -6.3057,4.08734 -11.96642,7.73618 -12.57938,8.10851 -0.65939,0.40053 -6.54369,-5.82757 -14.41042,-15.25238 -10.84519,-12.99319 -22.51306,-24.68469 -32.69721,-32.76344 -1.13972,-0.9041 -0.82371,-3.37089 1.88993,-14.7528 1.79216,-7.51695 3.51411,-13.9228 3.82655,-14.23524 0.31243,-0.31244 1.15176,3.50426 1.86518,8.48155 l 1.29712,9.04961 11.98543,0 11.98544,0 7.77874,7.0238 c 4.2783,3.86309 8.05412,7.0238 8.3907,7.0238 0.33658,0 3.45566,-1.96845 6.93129,-4.37432 6.09963,-4.22226 6.77281,-4.43382 19.36353,-6.08532 7.17431,-0.94104 13.36536,-2.02552 13.75788,-2.40993 0.39253,-0.38441 2.5373,-5.55391 4.76615,-11.48776 3.67245,-9.7771 4.05094,-11.65794 4.03615,-20.05671 -0.009,-5.09733 -0.44527,-14.46047 -0.96954,-20.80698 -0.90081,-10.90483 -1.32177,-12.44915 -7.65869,-28.09521 l -6.70549,-16.5561 -8.389,-8.55842 -8.38899,-8.55841 -17.42283,1.55365 -17.42282,1.55364 -17.31217,11.52007 c -9.5217,6.33604 -17.75807,11.8044 -18.30306,12.15193 -0.63935,0.40769 -0.45312,3.78943 0.52493,9.5323 0.83371,4.89524 1.44978,8.97303 1.36904,9.06175 -0.0808,0.0887 -10.30621,1.37102 -22.72329,2.84955 -12.41708,1.47853 -23.5006,3.04765 -24.63005,3.48693 -1.59446,0.62015 -19.93447,24.29576 -23.78563,30.70551 -0.44428,0.73943 3.52827,10.52801 9.66763,23.8216 6.76695,14.65252 12.78419,29.65398 17.15813,42.77663 l 6.73634,20.21023 15.06893,18.76785 c 8.2879,10.32232 16.10271,19.84385 17.36622,21.15897 l 2.29729,2.39113 30.44743,-1.77999 30.44743,-1.77999 28.44377,4.75968 c 15.64408,2.61783 28.79045,4.3747 29.21416,3.90417 0.42372,-0.47054 10.37429,-15.98178 22.1124,-34.46943 11.7381,-18.48765 21.6233,-33.93353 21.96712,-34.32416 0.3438,-0.39062 11.40954,-3.63805 24.59051,-7.21647 13.18097,-3.57843 24.27668,-6.87107 24.65712,-7.31696 0.38044,-0.4459 2.59118,-15.25314 4.91275,-32.90497 l 4.22103,-32.09424 13.52492,-34.86284 c 7.43871,-19.17457 13.9396,-35.95353 14.44643,-37.28658 0.82414,-2.16766 -2.06863,-6.48974 -27.38005,-40.90845 l -28.30155,-38.48471 -37.6074,-20.87844 c -32.31794,-17.94189 -42.99618,-23.26945 -75.92103,-37.87836 -21.07251,-9.34996 -38.70467,-16.99993 -39.18259,-16.99993 -0.47791,0 -2.31425,4.72205 -4.08074,10.49343 l -3.2118,10.49343 -6.77223,1.99091 c -3.72472,1.095 -41.31429,11.96382 -83.53235,24.15295 -42.21807,12.18913 -77.67131,22.54307 -78.78496,23.00878 -1.51978,0.63554 -11.15561,22.55132 -38.63091,87.86228 l -36.60608,87.01553 -20.82056,-0.66966 c -19.71173,-0.634 -20.82402,-0.5722 -20.8856,1.16043 -0.0358,1.00656 -1.30313,27.34155 -2.81634,58.52222 l -2.75127,56.69211 37.97112,62.87263 37.97112,62.87262 74.2942,73.88266 74.29419,73.88266 4.1861,-2.33163 c 2.30235,-1.28239 23.82766,-13.26745 47.83401,-26.63346 l 43.64791,-24.30184 119.90634,14.07919 c 65.94848,7.74356 121.13288,13.95272 122.632,13.79812 2.25452,-0.23248 8.08434,-6.88618 33.72679,-38.4931 l 31.00112,-38.21203 21.12487,-82.19963 21.12486,-82.19963 37.35501,-76.66047 c 28.51804,-58.52515 37.12431,-77.03925 36.37988,-78.26161 -0.53632,-0.88061 -26.61636,-43.05231 -57.95565,-93.71488 -31.33929,-50.66256 -56.8157,-92.26434 -56.61423,-92.44839 0.26257,-0.23987 255.4721,144.13357 266.64,150.83976 1.14461,0.68728 -0.3419,18.45064 -8.8352,105.57358 -5.6162,57.611 -10.3993,105.67826 -10.6292,106.81613 -0.7443,3.68449 -140.53975,156.36437 -213.98646,233.70886 l -71.44229,75.23371 -109.62721,19.2854 c -60.29497,10.6071 -110.07874,19.2599 -110.63061,19.2287 -0.55187,-0.031 -38.93193,-11.4597 -85.28903,-25.3966 z M 290.35544,761.87509 C 210.2807,681.34517 190.08741,660.6147 198.07473,667.13952 c 4.13903,3.38115 42.99312,35.62441 86.34243,71.65168 l 78.81693,65.50413 -5.06701,0.63455 c -2.78685,0.349 -9.14461,0.90145 -14.12835,1.22768 l -9.06133,0.59314 -44.62196,-44.87561 z M 773.02311,515.16143 c 0,-1.90233 24.18007,-125.20166 24.64414,-125.66573 0.24248,-0.24248 0.43566,1.10186 0.4293,2.98741 -0.006,1.88556 0.72836,20.18496 1.6327,40.66533 l 1.64425,37.23704 -12.83526,20.96018 c -14.92156,24.36711 -15.51513,25.27825 -15.51513,23.81577 z M 3.1519655,408.4539 c 2.22353,-4.13902 22.8861205,-43.42214 45.9168505,-87.29582 23.03075,-43.87368 42.89658,-81.37208 44.1463,-83.3298 1.48402,-2.32476 10.721494,-9.63402 26.630144,-21.07141 13.39687,-9.63155 25.01476,-17.90086 25.81754,-18.3762 0.80279,-0.47535 -3.46786,5.39454 -9.49032,13.04421 -6.02246,7.64966 -14.14319,17.97224 -18.04607,22.93907 -3.90288,4.96683 -31.821054,47.41067 -62.040384,94.31963 -30.21932,46.90896 -55.40157046,85.74056 -55.96054046,86.29243 -0.55897,0.55187 0.80295,-2.38308 3.02647996,-6.52211 z M 426.124,265.11249 c -13.36825,-5.32243 -24.20497,-9.9755 -24.0816,-10.34018 0.12336,-0.36468 4.08144,-3.81868 8.79572,-7.67555 l 8.57144,-7.0125 10.06208,10.68575 c 19.47834,20.68566 22.68542,24.23067 21.82587,24.12563 -0.47718,-0.0583 -11.80525,-4.46073 -25.17351,-9.78315 z"
       id="path4173"
       inkscape:connector-curvature="0" />
  </g>
</svg>
