<?xml version="1.0" encoding="UTF-8" standalone="no"?>
<!-- Created with Inkscape (http://www.inkscape.org/) -->

<svg
   xmlns:dc="http://purl.org/dc/elements/1.1/"
   xmlns:cc="http://creativecommons.org/ns#"
   xmlns:rdf="http://www.w3.org/1999/02/22-rdf-syntax-ns#"
   xmlns:svg="http://www.w3.org/2000/svg"
   xmlns="http://www.w3.org/2000/svg"
   xmlns:sodipodi="http://sodipodi.sourceforge.net/DTD/sodipodi-0.dtd"
   xmlns:inkscape="http://www.inkscape.org/namespaces/inkscape"
   width="1000"
   height="1000"
   viewBox="0 0 1000 1000"
   id="svg2"
   version="1.1"
   inkscape:version="0.91 r"
   sodipodi:docname="omen_icon.svg">
  <defs
     id="defs4" />
  <sodipodi:namedview
     id="base"
     pagecolor="#3a3a3a"
     bordercolor="#666666"
     borderopacity="1.0"
     inkscape:pageopacity="0"
     inkscape:pageshadow="2"
     inkscape:zoom="0.7"
     inkscape:cx="355.7384"
     inkscape:cy="426.59843"
     inkscape:document-units="px"
     inkscape:current-layer="layer1"
     showgrid="false"
     units="px"
     inkscape:window-width="1920"
     inkscape:window-height="1017"
     inkscape:window-x="-8"
     inkscape:window-y="-8"
     inkscape:window-maximized="1" />
  <metadata
     id="metadata7">
    <rdf:RDF>
      <cc:Work
         rdf:about="">
        <dc:format>image/svg+xml</dc:format>
        <dc:type
           rdf:resource="http://purl.org/dc/dcmitype/StillImage" />
        <dc:title></dc:title>
      </cc:Work>
    </rdf:RDF>
  </metadata>
  <g
     inkscape:label="Layer 1"
     inkscape:groupmode="layer"
     id="layer1"
     transform="translate(0,-52.362161)">
    <path
       style="fill:#000000"
       d="m 429.07365,830.95919 c -16.57563,-3.45903 -30.38074,-6.53846 -30.67803,-6.84317 -0.59724,-0.61215 1.18281,-8.74072 2.15289,-9.83116 0.45618,-0.51276 47.09306,16.71106 60.42599,22.31639 1.76336,0.74135 1.76336,0.74135 0,0.69422 -0.96984,-0.0259 -15.32522,-2.87724 -31.90085,-6.33628 z m 42.54234,-3.33489 c -7.72503,-3.90059 -17.84229,-8.41372 -22.4828,-10.02919 -12.07592,-4.20393 -16.25989,-6.11512 -24.64674,-11.25832 -6.61646,-4.05752 -7.65319,-5.05659 -9.44005,-9.09699 -1.10402,-2.49637 -2.46376,-7.06632 -3.02164,-10.15544 -0.55789,-3.08911 -2.94009,-11.36953 -5.29377,-18.40091 -8.28518,-24.75114 -11.79501,-47.68765 -9.89677,-64.67464 0.55278,-4.9467 1.24679,-9.62396 1.54225,-10.39391 0.46914,-1.22256 -0.94895,-1.4565 -11.19379,-1.84667 -11.96029,-0.4555 -76.51254,0.48495 -109.11938,1.58972 l -18.03733,0.61114 -56.23663,32.46794 c -35.59,20.54771 -71.21039,40.28692 -97.0217,53.76505 -22.431799,11.71341 -42.96724,22.49029 -45.63431,23.94862 l -4.84923,2.6515 2.26795,-2.52791 c 1.24738,-1.39034 10.57113,-11.66712 20.71945,-22.83728 10.148311,-11.17017 19.211119,-21.19246 20.139553,-22.27177 0.928447,-1.0793 -7.389409,3.18061 -18.484113,9.46649 -11.0947,6.28587 -20.26928,11.33176 -20.38795,11.21309 -0.11868,-0.11868 2.15577,-9.89797 5.05432,-21.73177 2.89856,-11.8338 5.14721,-21.88468 4.99701,-22.33529 -0.15021,-0.45061 -8.84133,13.00624 -19.31363,29.90411 l -19.04053,30.72339 -12.22219,6.9285 c -6.72221,3.81069 -13.97534,7.94487 -16.11808,9.18708 L 0,814.77941 l 1.83367,-2.9898 c 1.00852,-1.64439 23.28302,-38.03544 49.49889,-80.86902 l 47.665224,-77.87923 71.898426,-103.36278 71.89843,-103.36277 89.12011,-64.14176 89.12011,-64.14176 12.85913,0.95462 c 7.07252,0.52504 12.97265,1.06814 13.1114,1.20689 0.13874,0.13874 -21.16109,15.84884 -47.33296,34.91133 -26.17186,19.06249 -47.58521,34.83531 -47.58521,35.0507 0,0.2154 0.29756,0.21664 0.66125,0.003 3.25366,-1.9134 105.5502,-61.26442 111.11843,-64.46936 l 7.3008,-4.20218 23.55795,1.48829 23.55795,1.48829 29.53623,-8.06624 c 16.24493,-4.43643 58.30099,-15.80444 93.45792,-25.26227 l 63.92169,-17.19604 47.05325,-3.26377 47.05325,-3.26376 37.51689,19.57186 37.51683,19.57186 5.18744,12.66954 5.18754,12.66955 42.935,13.40303 c 40.22191,12.55608 43.10218,13.59035 45.58005,16.36748 1.45476,1.63046 8.07317,8.90819 14.70763,16.17275 l 12.06268,13.2083 -21.76115,0.5785 c -11.96861,0.31817 -40.07599,0.57936 -62.46101,0.58041 l -40.69986,0.002 -55.40309,27.70194 -55.403,27.70194 -62.54903,53.79575 -62.54903,53.79576 -19.89702,33.93207 -19.897,33.93208 -14.97943,13.37234 c -8.23869,7.35479 -16.46726,14.13924 -18.28572,15.07656 -1.81846,0.93732 -3.30629,1.84432 -3.30629,2.01555 0,0.17122 3.72473,2.74278 8.27719,5.71459 4.55247,2.9718 10.71308,7.75005 13.69024,10.61833 4.27903,4.12254 6.19296,5.34006 9.13595,5.8117 9.03473,1.4479 33.79153,7.61837 44.28012,11.03653 22.82254,7.43771 36.95431,14.889 48.1673,25.39732 6.19485,5.80555 13.97024,16.33171 12.87375,17.42822 -0.77962,0.77962 -10.7274,-1.23676 -14.75293,-2.99037 -2.18215,-0.95059 -9.52585,-5.68845 -16.31933,-10.52857 -15.36539,-10.94734 -17.34641,-11.95335 -30.65652,-15.56816 -17.50199,-4.75325 -17.98588,-4.75501 -10.32615,-0.0377 16.25229,10.0091 27.35974,22.13225 35.61544,38.8722 2.11503,4.28863 4.13225,8.73725 4.48269,9.88582 l 0.63717,2.08833 -2.83334,-1.64749 c -4.33406,-2.52009 -9.87737,-9.14168 -15.97528,-19.0828 -7.60508,-12.39821 -16.8779,-21.6819 -25.75153,-25.78178 -5.70097,-2.63371 -9.40742,-3.7452 -9.40742,-2.8208 0,0.13748 1.39801,4.36104 3.1067,9.38572 4.78928,14.08365 7.65052,29.48275 7.79316,41.94254 0.0667,5.81908 -0.20807,11.7671 -0.61041,13.21781 -0.67464,2.43251 -1.07102,1.74676 -5.09644,-8.81678 -15.10138,-39.62925 -31.32622,-60.75198 -55.88952,-72.76126 -5.30484,-2.5936 -15.39877,-6.27359 -25.34093,-9.23867 l -16.52415,-4.92804 -30.07863,11.06598 c -28.91114,10.63647 -30.3573,11.06982 -37.25824,11.16468 -3.94879,0.0543 -10.89795,0.35184 -15.44258,0.66126 l -8.26296,0.56257 -1.72001,4.38863 c -0.94601,2.41375 -2.66811,10.16585 -3.8269,17.22689 -1.15878,7.06103 -2.7111,15.40179 -3.44958,18.535 -1.98427,8.41875 -1.8113,21.21065 0.34395,25.43526 4.24712,8.32506 23.05885,22.52207 42.81204,32.30977 16.05719,7.95635 18.81877,8.55307 36.58965,7.90631 14.08305,-0.51254 14.65913,-0.46446 18.0364,1.50514 2.94739,1.7189 8.80884,8.53272 8.01929,9.32227 -0.13715,0.13715 -4.88585,-0.35842 -10.55265,-1.10127 -5.6668,-0.74286 -13.35782,-1.35473 -17.09113,-1.35974 -21.10014,-0.0283 -35.23958,-2.97873 -47.7859,-9.97141 -6.22539,-3.4697 -10.49477,-5.44084 -20.55409,-9.48966 l -4.24304,-1.70779 1.598,2.76758 c 5.10108,8.83454 13.40171,15.03224 27.5636,20.58045 15.55988,6.0959 21.90886,10.24428 27.38702,17.89443 3.44671,4.81329 4.17571,6.43231 2.85439,6.33932 -0.36369,-0.0256 -6.98174,-3.23792 -14.70677,-7.1385 z"
       id="path4147"
       inkscape:connector-curvature="0" />
  </g>
</svg>
