<?xml version="1.0" encoding="UTF-8" standalone="no"?>
<!-- Created with Inkscape (http://www.inkscape.org/) -->

<svg
   xmlns:dc="http://purl.org/dc/elements/1.1/"
   xmlns:cc="http://creativecommons.org/ns#"
   xmlns:rdf="http://www.w3.org/1999/02/22-rdf-syntax-ns#"
   xmlns:svg="http://www.w3.org/2000/svg"
   xmlns="http://www.w3.org/2000/svg"
   xmlns:sodipodi="http://sodipodi.sourceforge.net/DTD/sodipodi-0.dtd"
   xmlns:inkscape="http://www.inkscape.org/namespaces/inkscape"
   id="svg2"
   version="1.1"
   inkscape:version="0.91 r"
   width="512"
   height="512"
   viewBox="0 0 512 512"
   sodipodi:docname="skull.svg">
  <metadata
     id="metadata8">
    <rdf:RDF>
      <cc:Work
         rdf:about="">
        <dc:format>image/svg+xml</dc:format>
        <dc:type
           rdf:resource="http://purl.org/dc/dcmitype/StillImage" />
        <dc:title />
      </cc:Work>
    </rdf:RDF>
  </metadata>
  <defs
     id="defs6" />
  <sodipodi:namedview
     pagecolor="#ffffff"
     bordercolor="#666666"
     borderopacity="1"
     objecttolerance="10"
     gridtolerance="10"
     guidetolerance="10"
     inkscape:pageopacity="0"
     inkscape:pageshadow="2"
     inkscape:window-width="1920"
     inkscape:window-height="1017"
     id="namedview4"
     showgrid="false"
     inkscape:zoom="1.3037281"
     inkscape:cx="192.28212"
     inkscape:cy="223.62426"
     inkscape:window-x="-8"
     inkscape:window-y="-8"
     inkscape:window-maximized="1"
     inkscape:current-layer="g3338" />
  <g
     id="g3338"
     transform="translate(164.14465,-3.0681243)">
    <path
       style="fill:#ff5555"
       d="m 53.803759,479.94904 c -8.01959,-1.47395 -15.40088,-6.33875 -18.43961,-12.15303 -1.27184,-2.43354 -1.94292,-2.63646 -10.56666,-3.19517 -11.92985,-0.7729 -17.0461505,-3.2288 -21.8494205,-10.48808 -3.43370997,-5.18943 -3.48164997,-5.21818 -8.70078,-5.21818 -12.8289205,0 -21.3243495,-4.22657 -25.4469595,-12.66014 -2.2749,-4.65373 -2.38576,-5.93758 -2.88271,-33.3839 -0.44151,-24.38477 -0.75994,-28.91507 -2.18526,-31.09034 -1.26027,-1.92337 -4.07363,-3.312 -11.5,-5.67623 -12.48241,-3.97383 -20.61748,-8.7867 -30.47387,-18.02897 -9.17966,-8.6077 -15.602,-18.38929 -19.47427,-29.66042 -5.021729,-14.61694 -3.529009,-33.49349 3.78183,-47.82393 l 1.96317,-3.84812 -3.00417,-10.66398 c -14.195559,-50.39025 -9.864449,-94.78201 13.04099,-133.66397 26.50802,-44.997334 76.3940995,-74.437254 140.83476,-83.112654 16.86752,-2.27081 49.132481,-2.27081 66.000001,0 26.84769,3.6144 48.46306,9.86419 70,20.23953 76.83083,37.013 108.51411,111.977844 83.57456,197.743194 l -2.57932,8.87007 3.66021,9.12993 c 3.08686,7.69981 3.73463,10.65488 4.13536,18.86526 0.27841,5.70399 -0.0339,12.3295 -0.75406,16 -5.00763,25.52091 -26.94515,48.65919 -53.83765,56.7845 -11.00802,3.32596 -10.59391,2.00396 -11.25648,35.93555 -0.62906,32.21585 -1.07037,34.43023 -8.05276,40.4069 -4.88442,4.18088 -9.72586,5.63772 -18.73556,5.63772 l -7.11365,0 -1.9913,3.90327 c -2.4618,4.82552 -7.93194,9.44537 -12.97163,10.9553 -2.09537,0.62779 -6.94961,1.14143 -10.7872,1.14143 l -6.97745,0 -4.32947,5.1345 c -2.82953,3.35566 -6.26163,6.04035 -9.90653,7.7492 -5.28962,2.47994 -6.37597,2.61111 -21.07707,2.54493 -11.81531,-0.0532 -16.51032,-0.45847 -19.75001,-1.70484 -3.86449,-1.48676 -4.63551,-1.49509 -8.49999,-0.0918 -4.962071,1.80181 -26.791591,2.71925 -33.847041,1.4225 z m 32.221991,-29.69102 5.87504,-2.63657 5.87506,2.63657 c 5.32836,2.39122 7.0291,2.63656 18.27749,2.63656 8.97673,0 12.95124,-0.38439 14.38929,-1.39164 1.09277,-0.76541 3.30064,-4.14041 4.90638,-7.5 l 2.91953,-6.10836 12.125,0 c 8.19745,0 12.63268,-0.4049 13.69228,-1.25 0.86201,-0.6875 2.62718,-4.27548 3.92261,-7.97329 l 2.35532,-6.72328 13.51853,-0.27672 13.51852,-0.27671 0.31639,-4.43191 c 0.37877,-5.30581 -2.14499,-12.48441 -5.12224,-14.56976 -3.64218,-2.55108 -6.95629,-1.7454 -14.40383,3.50167 -3.90326,2.75 -7.60321,5 -8.2221,5 -0.61889,0 -3.79959,-1.35 -7.06822,-3 -3.26863,-1.65 -6.43237,-3 -7.03052,-3 -0.59815,0 -4.63442,2.7 -8.96948,6 -4.33506,3.3 -8.4153,6 -9.06719,6 -0.6519,0 -5.34666,-2.25 -10.43281,-5 -13.47704,-7.28682 -14.13374,-7.1878 -28.26053,4.26134 l -7.26054,5.88434 -10.669281,-7.57284 c -13.23081,-9.39095 -14.22527,-9.4882 -26.30965,-2.57284 -4.80554,2.75 -9.00989,5 -9.343,5 -0.3331,0 -3.74272,-2.7 -7.57693,-6 -8.16269,-7.02541 -9.64022,-7.26042 -18.26727,-2.9055 l -6.13017,3.0945 -7.3280605,-5.0945 c -8.39413,-5.83563 -12.61389,-6.58054 -16.1136403,-2.8445 -4.5486102,4.8557 -5.9678702,15.7554 -2.3066702,17.71482 1.06384,0.56935 7.2620405,1.03518 13.7737805,1.03518 l 11.8395305,0 2.78911,7.5 2.78911,7.5 13.21458,0 13.21458,0 2.8441,6.52845 c 3.98218,9.14083 4.66126,9.47155 19.44841,9.47155 11.24839,0 12.94913,-0.24534 18.277491,-2.63656 z m 12.3513,-47.44528 c 6.99252,-5.77828 10.28789,-7.27076 16.22726,-7.34933 4.31457,-0.0571 6.64141,0.69441 13.62035,4.39884 l 8.41685,4.46766 7.72327,-5.21766 c 8.76022,-5.9182 12.16064,-6.47848 19.39522,-3.19571 2.39757,1.08792 4.87857,1.97804 5.51335,1.97804 0.63478,0 3.56787,-1.6255 6.51798,-3.61221 2.95011,-1.98672 7.1237,-3.84827 9.27466,-4.13677 2.16494,-0.29038 4.27901,-1.24474 4.73555,-2.13779 0.4536,-0.88728 1.09266,-5.21323 1.42014,-9.61323 1.41683,-19.03654 10.16028,-31.40211 25.3995,-35.92167 20.24246,-6.00339 29.68575,-13.44069 36.96182,-29.11022 2.37312,-5.11068 2.77416,-7.26112 2.79142,-14.96811 0.0183,-8.14399 -0.30555,-9.71334 -3.4043,-16.5 -4.96783,-10.88018 -5.07228,-15.64278 -0.69114,-31.51442 5.47029,-19.81736 6.98575,-30.58633 6.96385,-49.48558 -0.0152,-13.0925 -0.46871,-18.61341 -2.19618,-26.73367 -12.16509,-57.18416 -56.65048,-94.444024 -127.6888,-106.948994 -14.3017,-2.51754 -60.612401,-2.51754 -74.914101,0 -55.9467505,9.84838 -96.2647,35.597854 -116.21068,74.219154 -9.80347,18.98239 -13.64676,35.6952 -13.67431,59.46351 -0.0219,18.89925 1.49357,29.66822 6.96386,49.48558 4.39825,15.93364 4.30819,20.87309 -0.56575,31.03204 -4.47037,9.31777 -5.3754,21.82343 -2.22588,30.75716 5.36332,15.21328 16.04774,23.63254 38.44943,30.29796 14.933089,4.4432 23.8776492,16.77187 25.2941192,34.86395 0.8675803,11.08118 0.9413403,11.25275 5.1669403,12.01838 2.06763003,0.37463 6.77175,2.48698 10.45362,4.69411 l 6.6942905,4.01297 6.04634,-2.71344 c 7.89834,-3.54456 11.49357,-2.97838 19.1164,3.01045 3.17887,2.49746 6.47023,4.54084 7.31414,4.54084 0.8439,0 4.10331,-1.54751 7.24312,-3.43891 10.44053,-6.2893 16.77688,-5.73604 27.99806,2.44462 3.767791,2.74686 7.768411,4.99429 8.890261,4.99429 1.12186,0 4.26256,-1.83683 6.97934,-4.08184 z M 69.340379,364.58812 c -8.89276,-10.30283 -11.64281,-21.00318 -7.66755,-29.83424 2.09478,-4.65356 16.06823,-26.18694 18.89082,-29.11114 3.603681,-3.73342 12.774891,-4.75718 19.284261,-2.15264 3.20226,1.28129 4.66867,2.8134 7.44588,7.77951 1.90206,3.40121 5.78819,9.09572 8.63584,12.65449 9.70843,12.1328 11.04765,17.96756 6.41054,27.92956 -2.75164,5.91139 -8.3492,13.28051 -11.8106,15.5485 -1.94701,1.27573 -2.75184,1.12102 -8.03714,-1.54494 -8.01951,-4.04512 -14.7889,-4.05044 -23.312031,-0.0183 l -6.22041,2.94275 -3.61961,-4.19354 z m -57.50182,-60.7303 c -15.2267005,-2.31157 -30.288131,-12.64717 -38.264901,-26.25849 -9.455529,-16.13463 -9.455529,-37.27487 0,-53.4095 3.74727,-6.39424 10.65196,-13.65262 16.9881002,-17.85831 17.8760803,-11.86546 40.8020008,-11.86546 58.6780808,0 6.33614,4.20569 13.24083,11.46407 16.9881,17.85831 7.49093,12.78231 9.25422,29.80769 4.48522,43.30679 -8.83446,25.00673 -33.46498,40.21864 -58.8746,36.3612 z m 144.000001,0 c -15.2267,-2.31157 -30.28813,-12.64717 -38.2649,-26.25849 -9.45553,-16.13463 -9.45553,-37.27487 0,-53.4095 3.74727,-6.39424 10.65196,-13.65262 16.9881,-17.85831 17.87608,-11.86546 40.802,-11.86546 58.67808,0 6.33614,4.20569 13.24083,11.46407 16.9881,17.85831 7.49093,12.78231 9.25422,29.80769 4.48522,43.30679 -8.83446,25.00673 -33.46498,40.21864 -58.8746,36.3612 z"
       id="path3340"
       inkscape:connector-curvature="0" />
  </g>
</svg>
