<?xml version="1.0" encoding="UTF-8" standalone="no"?>
<!-- Created with Inkscape (http://www.inkscape.org/) -->

<svg
   xmlns:dc="http://purl.org/dc/elements/1.1/"
   xmlns:cc="http://creativecommons.org/ns#"
   xmlns:rdf="http://www.w3.org/1999/02/22-rdf-syntax-ns#"
   xmlns:svg="http://www.w3.org/2000/svg"
   xmlns="http://www.w3.org/2000/svg"
   xmlns:sodipodi="http://sodipodi.sourceforge.net/DTD/sodipodi-0.dtd"
   xmlns:inkscape="http://www.inkscape.org/namespaces/inkscape"
   width="1000"
   height="655.79797"
   viewBox="0 0 1000 655.79797"
   id="svg2"
   version="1.1"
   inkscape:version="0.91 r13725"
   sodipodi:docname="item_icon.svg">
  <defs
     id="defs4" />
  <sodipodi:namedview
     id="base"
     pagecolor="#3a3a3a"
     bordercolor="#666666"
     borderopacity="1.0"
     inkscape:pageopacity="0"
     inkscape:pageshadow="2"
     inkscape:zoom="0.7"
     inkscape:cx="138.59554"
     inkscape:cy="483.74129"
     inkscape:document-units="px"
     inkscape:current-layer="layer1"
     showgrid="false"
     units="px"
     inkscape:window-width="1920"
     inkscape:window-height="1001"
     inkscape:window-x="-9"
     inkscape:window-y="-9"
     inkscape:window-maximized="1" />
  <metadata
     id="metadata7">
    <rdf:RDF>
      <cc:Work
         rdf:about="">
        <dc:format>image/svg+xml</dc:format>
        <dc:type
           rdf:resource="http://purl.org/dc/dcmitype/StillImage" />
        <dc:title></dc:title>
      </cc:Work>
    </rdf:RDF>
  </metadata>
  <g
     inkscape:label="Layer 1"
     inkscape:groupmode="layer"
     id="layer1"
     transform="translate(0,-396.56416)">
    <path
       style="fill:#ffffff"
       d="m 477.50585,1048.8659 c -0.49226,-1.9228 -5.03755,-23.5028 -10.10064,-47.9555 l -9.20562,-44.4595 -8.0392,0.68269 c -4.42156,0.37549 -8.99554,0.71161 -10.16439,0.74695 -1.73551,0.0525 -4.49533,-3.02626 -15.05072,-16.78988 l -12.92551,-16.85413 -2.05888,-15.70726 c -4.6956,-35.82288 -8.74134,-80.47287 -9.74899,-107.59281 -0.29169,-7.85042 -0.74194,-16.2807 -1.00055,-18.73395 l -0.47021,-4.46047 -9.73398,-7.58278 -9.73398,-7.58279 -5.75641,-17.84186 c -3.16602,-9.81302 -10.29952,-31.99903 -15.85221,-49.30224 -5.55268,-17.30321 -10.20409,-31.1355 -10.33644,-30.73843 -0.13236,0.39708 2.77597,19.07812 6.46296,41.51343 3.68699,22.43531 6.70362,40.97066 6.70362,41.18965 0,0.219 -6.92487,-5.04467 -15.3886,-11.69703 -12.3234,-9.68599 -15.43588,-12.56735 -15.62596,-14.46563 -0.13054,-1.30374 -2.00857,-26.6881 -4.17341,-56.40969 l -3.93605,-54.03927 5.328,-20.00444 c 2.9304,-11.00244 5.16392,-20.64267 4.96337,-21.42272 -0.20055,-0.78005 -4.21601,-7.00239 -8.92322,-13.82744 l -8.55857,-12.40916 -62.26067,-21.21762 -62.26066,-21.21762 -41.48232,0.0831 -41.48231,0.0831 -19.985416,11.49077 -19.985403,11.49078 -9.369151,18.1186 -9.36916,18.11859 8.667449,27.08536 8.667448,27.08538 10.480967,13.95089 c 5.764525,7.673 10.763206,14.42243 11.108179,14.99874 0.601547,1.00494 -1.538851,17.89719 -2.373493,18.73183 -0.222738,0.22273 -13.372168,-11.1618 -29.220964,-25.29897 L 26.498769,610.92069 13.249385,581.03558 5.0000002e-7,551.15047 8.6951925,516.75889 17.390384,482.36732 42.862345,465.0217 l 25.471961,-17.34562 29.885109,-10.94103 29.885115,-10.94103 50.56722,1.76134 50.56722,1.76133 63.27072,10.73668 c 34.79889,5.90516 64.24239,10.73666 65.42999,10.73666 1.1876,0 17.20202,-4.17429 35.5876,-9.27619 l 33.42834,-9.27621 36.47419,-15.23774 36.47419,-15.23774 37.56951,15.57153 c 37.51168,15.54756 37.6193,15.5853 69.91482,24.51394 17.78991,4.91832 33.33777,8.94241 34.55079,8.94241 1.21303,0 30.7173,-4.83024 65.56507,-10.73387 l 63.35956,-10.73387 50.33152,-1.78698 50.33149,-1.78697 30.17674,11.02021 30.17665,11.02021 25.37246,17.33528 25.37246,17.33529 8.68746,34.16855 8.68747,34.16857 -13.23205,30.06211 -13.23215,30.06213 -28.76794,25.6173 c -15.82243,14.08952 -29.04181,25.44808 -29.37644,25.24125 -0.33462,-0.20682 -1.11663,-4.36338 -1.73771,-9.23677 l -1.12912,-8.86072 11.03938,-14.69527 11.03938,-14.69527 8.72976,-27.16662 8.72975,-27.16662 -9.06598,-17.3391 c -4.98636,-9.5365 -9.72819,-17.98411 -10.5374,-18.77248 -0.80931,-0.78836 -10.04693,-6.30818 -20.52813,-12.26627 l -19.05663,-10.83289 -41.60569,0.0141 -41.6056,0.0142 -61.90101,21.17306 -61.90101,21.17308 -9.17391,13.26648 c -5.04565,7.29657 -9.01188,13.71964 -8.81385,14.27348 0.19801,0.55386 2.70629,9.83872 5.57394,20.63305 l 5.21392,19.62604 -4.10289,55.7558 c -2.25659,30.66569 -4.39168,56.2144 -4.74466,56.77491 -0.35297,0.5605 -16.03789,13.11296 -34.85536,27.89435 l -34.21359,26.87525 -0.60432,16.26424 c -1.13886,30.65037 -4.59671,70.36084 -9.47337,108.79358 -1.4146,11.14842 -2.8994,20.82323 -3.29955,21.49961 -0.40014,0.67638 -6.33049,8.54495 -13.17855,17.48571 -12.01437,15.68588 -12.5462,16.2395 -15.16558,15.7869 -5.11091,-0.88312 -17.4341,-1.67533 -17.4341,-1.12077 0,1.1795 -19.65552,94.565 -19.96996,94.8795 -0.18321,0.1831 -5.07857,-7.7707 -10.87858,-17.6751 -9.67184,-16.5164 -10.64846,-17.8686 -11.78862,-16.3219 -0.68372,0.9275 -5.58752,9.0805 -10.89732,18.1177 l -9.65418,16.4315 -0.89503,-3.4961 z M 552.7407,936.4505 c 3.43456,-0.8249 6.63219,-1.85214 7.10586,-2.28276 0.79288,-0.72083 23.77095,-92.80253 23.28539,-93.31324 -0.15324,-0.16117 -31.71453,77.17517 -39.54455,96.89813 -0.34117,0.85939 0.0159,1.06783 1.21254,0.70787 0.93286,-0.2806 4.5062,-1.1851 7.94076,-2.01 z M 94.718664,627.46306 c -3.471748,-4.92777 -9.160713,-13.00255 -12.642132,-17.94397 -3.481428,-4.94142 -6.19116,-9.10193 -6.021627,-9.24557 0.169525,-0.14365 10.036375,7.05728 21.926321,16.00206 l 21.618084,16.26325 -7.79064,1.50867 c -4.28486,0.82977 -8.46275,1.70363 -9.28419,1.94191 -1.09123,0.31653 -3.193856,-1.98017 -7.805816,-8.52635 z M 695.14551,567.43117 c 1.03079,-2.57592 2.43786,-6.30198 3.12681,-8.28013 l 1.25264,-3.59664 38.97117,-13.98825 c 21.43414,-7.69353 39.09459,-13.86482 39.24545,-13.71397 0.26478,0.2648 -83.32348,44.26247 -84.09132,44.26247 -0.20841,0 0.46446,-2.10757 1.49525,-4.68348 z M 397.9626,421.33094 c 4.66118,-4.43566 11.8132,-11.13637 15.89336,-14.89046 l 7.4185,-6.82563 23.80475,-1.63526 c 13.09262,-0.89939 25.20981,-1.52859 26.92709,-1.39822 2.46646,0.18725 -4.93549,3.31702 -35.23766,14.89951 -21.098,8.06436 -40.3672,15.39427 -42.82046,16.28869 l -4.46046,1.62622 8.47488,-8.06485 z"
       id="path4160"
       inkscape:connector-curvature="0" />
  </g>
</svg>
