<?xml version="1.0" encoding="UTF-8" standalone="no"?>
<!-- Created with Inkscape (http://www.inkscape.org/) -->

<svg
   xmlns:dc="http://purl.org/dc/elements/1.1/"
   xmlns:cc="http://creativecommons.org/ns#"
   xmlns:rdf="http://www.w3.org/1999/02/22-rdf-syntax-ns#"
   xmlns:svg="http://www.w3.org/2000/svg"
   xmlns="http://www.w3.org/2000/svg"
   xmlns:sodipodi="http://sodipodi.sourceforge.net/DTD/sodipodi-0.dtd"
   xmlns:inkscape="http://www.inkscape.org/namespaces/inkscape"
   id="svg2"
   version="1.1"
   inkscape:version="0.91 r13725"
   width="512"
   height="512"
   viewBox="0 0 512 512"
   sodipodi:docname="skull.svg">
  <metadata
     id="metadata8">
    <rdf:RDF>
      <cc:Work
         rdf:about="">
        <dc:format>image/svg+xml</dc:format>
        <dc:type
           rdf:resource="http://purl.org/dc/dcmitype/StillImage" />
        <dc:title />
      </cc:Work>
    </rdf:RDF>
  </metadata>
  <defs
     id="defs6" />
  <sodipodi:namedview
     pagecolor="#ffffff"
     bordercolor="#666666"
     borderopacity="1"
     objecttolerance="10"
     gridtolerance="10"
     guidetolerance="10"
     inkscape:pageopacity="0"
     inkscape:pageshadow="2"
     inkscape:window-width="1920"
     inkscape:window-height="1001"
     id="namedview4"
     showgrid="false"
     inkscape:zoom="1.578125"
     inkscape:cx="170.77228"
     inkscape:cy="332.0396"
     inkscape:window-x="-9"
     inkscape:window-y="-9"
     inkscape:window-maximized="1"
     inkscape:current-layer="g3338" />
  <g
     id="g3338"
     transform="translate(164.14465,-3.0681243)">
    <path
       style="fill:#ff5555"
       d="m 48.046664,513.36768 c -9.232931,-1.69695 -17.730989,-7.29778 -21.22947,-13.99175 -1.464265,-2.80172 -2.236878,-3.03534 -12.165365,-3.67858 -13.73480278,-0.88984 -19.6251839,-3.71731 -25.155175,-12.0749 -3.95322,-5.97458 -4.008414,-6.00768 -10.017183,-6.00768 -14.769899,0 -24.550662,-4.86603 -29.297011,-14.57558 -2.619086,-5.35783 -2.746719,-6.83592 -3.318856,-38.43478 -0.508309,-28.07413 -0.874916,-33.28984 -2.515883,-35.79422 -1.450946,-2.21437 -4.689959,-3.8131 -13.239917,-6.53504 -14.370963,-4.57506 -23.736846,-10.11609 -35.084474,-20.7567 -10.56852,-9.91001 -17.96254,-21.17153 -22.42067,-34.14795 -5.78151,-16.82844 -4.06295,-38.56096 4.35401,-55.05956 l 2.26019,-4.43032 -3.45869,-12.27741 c -16.34331,-58.01415 -11.35692,-109.12226 15.01406,-153.88695 30.518595,-51.805296 87.952294,-85.699391 162.142642,-95.6873527 19.419531,-2.614378 56.566088,-2.614378 75.985608,0 30.90967,4.1612477 55.79538,11.3566127 80.5908,23.3017117 88.45512,42.61296 124.93199,128.919771 96.21915,227.661171 l -2.96957,10.21208 4.21399,10.51127 c 3.5539,8.86476 4.29967,12.26693 4.76103,21.71951 0.32053,6.56699 -0.039,14.19492 -0.86814,18.42076 -5.76527,29.38215 -31.02188,56.02118 -61.98313,65.37582 -12.6735,3.82918 -12.19674,2.30717 -12.95956,41.37251 -0.72423,37.09001 -1.23231,39.63942 -9.27112,46.52034 -5.62341,4.81344 -11.19735,6.49069 -21.57019,6.49069 l -8.18993,0 -2.29257,4.49383 c -2.83427,5.55561 -9.13202,10.87442 -14.9342,12.6128 -2.4124,0.72277 -8.00108,1.31413 -12.41928,1.31413 l -8.03312,0 -4.98451,5.91133 c -3.25762,3.86336 -7.20899,6.95424 -11.40535,8.92164 -6.08993,2.85514 -7.34063,3.00616 -24.26597,2.92996 -13.60294,-0.0612 -19.00829,-0.52783 -22.738132,-1.96277 -4.449172,-1.71171 -5.336853,-1.72129 -9.786016,-0.10569 -5.712816,2.07442 -30.845079,3.13066 -38.967998,1.63772 z m 37.097085,-34.18318 6.763921,-3.03548 6.763931,3.03548 c 6.134529,2.753 8.092579,3.03546 21.042819,3.03546 10.33489,0 14.91073,-0.44254 16.56636,-1.60219 1.2581,-0.88122 3.80001,-4.76684 5.6487,-8.63473 l 3.36124,-7.03253 13.95948,0 c 9.4377,0 14.54396,-0.46616 15.76388,-1.43913 0.99244,-0.79152 3.02466,-4.92234 4.51609,-9.17963 l 2.71167,-7.74049 15.56385,-0.31859 15.56383,-0.31857 0.36426,-5.10244 c 0.43608,-6.10857 -2.46952,-14.37327 -5.89722,-16.77413 -4.19323,-2.93704 -8.00875,-2.00947 -16.58308,4.03147 -4.49381,3.16606 -8.75356,5.75648 -9.46609,5.75648 -0.71252,0 -4.37445,-1.55425 -8.13762,-3.45389 -3.76316,-1.89964 -7.40557,-3.45389 -8.09421,-3.45389 -0.68865,0 -5.33559,3.1085 -10.32654,6.90778 -4.99094,3.79928 -9.68852,6.90778 -10.43903,6.90778 -0.75053,0 -6.15559,-2.59041 -12.01127,-5.75648 -15.51607,-8.3893 -16.27213,-8.2753 -32.53626,4.90606 l -8.359037,6.77463 -12.28352,-8.71859 c -15.232589,-10.81177 -16.377508,-10.92373 -30.29022,-2.9621 -5.532604,3.16607 -10.373061,5.75648 -10.756569,5.75648 -0.383497,0 -4.308983,-3.1085 -8.723298,-6.90778 -9.397681,-8.08834 -11.098758,-8.3589 -21.0310555,-3.34509 l -7.0576471,3.56269 -8.4367743,-5.86529 c -9.6641381,-6.71854 -14.5223351,-7.57615 -18.5515881,-3.27486 -5.236802,5.59036 -6.870792,18.13914 -2.655663,20.39502 1.224796,0.65549 8.360767,1.1918 15.857714,1.1918 l 13.6308177,0 3.2110941,8.63473 3.2110941,8.63473 15.2139081,0 15.213908,0 3.274404,7.51618 c 4.584672,10.52381 5.366495,10.90457 22.390899,10.90457 12.950239,0 14.908299,-0.28246 21.042822,-3.03546 z m 14.220015,-54.62361 c 8.050476,-6.65252 11.844426,-8.37081 18.682396,-8.46127 4.96735,-0.0658 7.64624,0.79947 15.68107,5.06437 l 9.69029,5.1436 8.89178,-6.00707 c 10.08563,-6.81361 14.00051,-7.45866 22.32967,-3.67922 2.76031,1.25252 5.61668,2.27732 6.34751,2.27732 0.73081,0 4.10767,-1.87144 7.50413,-4.15873 3.39645,-2.28731 8.20149,-4.4305 10.67788,-4.76265 2.49249,-0.33431 4.92642,-1.43306 5.45203,-2.46123 0.52223,-1.02152 1.25798,-6.00198 1.635,-11.06768 1.63119,-21.91672 11.6975,-36.15317 29.24237,-41.35652 23.30509,-6.91168 34.17712,-15.47423 42.55404,-33.51452 2.73216,-5.8839 3.19388,-8.3597 3.21375,-17.23273 0.0211,-9.37616 -0.35178,-11.18294 -3.91936,-18.9964 -5.71945,-12.52633 -5.8397,-18.00949 -0.7957,-36.28247 6.29792,-22.81567 8.04267,-35.21395 8.01746,-56.97261 -0.0175,-15.07335 -0.53963,-21.42956 -2.52847,-30.77839 C 268.03399,95.478731 216.81809,52.581559 135.03187,38.184623 c -16.46551,-2.898437 -69.782881,-2.898437 -86.248387,0 -64.411333,11.338412 -110.829272,40.983707 -133.793022,85.448297 -11.286706,21.85437 -15.711471,41.09578 -15.743191,68.46016 -0.0252,21.75866 1.719545,34.15694 8.017469,56.97261 5.063693,18.34436 4.960008,24.03113 -0.651345,35.7271 -5.146719,10.72753 -6.188689,25.12525 -2.562649,35.41063 6.174774,17.51501 18.475716,27.20808 44.266717,34.88195 17.192422,5.11545 27.490268,19.30941 29.121047,40.13877 0.998842,12.75773 1.083762,12.95525 5.948683,13.83673 2.380456,0.4313 7.7962961,2.86325 12.0352221,5.40431 l 7.7071174,4.62012 6.9611335,-3.12398 c 9.093337,-4.08083 13.232515,-3.42899 22.008657,3.46592 3.659824,2.87533 7.449157,5.22786 8.420748,5.22786 0.97158,0 4.724129,-1.78164 8.338984,-3.9592 12.020152,-7.24085 19.315169,-6.60389 32.234081,2.81448 4.337856,3.16245 8.943758,5.74992 10.23534,5.74992 1.291592,0 4.907473,-2.11474 8.035289,-4.69941 z m -33.42983,-44.0079 c -10.238213,-11.86162 -13.404338,-24.1809 -8.827632,-34.34808 2.411714,-5.35763 18.499311,-30.14894 21.748943,-33.51557 4.148913,-4.29828 14.707701,-5.47693 22.201905,-2.47832 3.68676,1.47514 5.37503,3.23905 8.57243,8.95652 2.18984,3.9158 6.66393,10.47187 9.94242,14.56908 11.17729,13.96846 12.71913,20.686 7.38043,32.15522 -3.16795,6.80577 -9.6124,15.28982 -13.5975,17.90095 -2.24159,1.46874 -3.16819,1.29062 -9.25314,-1.77869 -9.232836,-4.65713 -17.026413,-4.66326 -26.839076,-0.0211 l -7.161536,3.38798 -4.167244,-4.82801 z M -0.26775038,310.63437 C -17.798206,307.97307 -35.138388,296.07372 -44.32202,280.40304 c -10.886123,-18.57575 -10.886123,-42.91445 0,-61.4902 4.314221,-7.36167 12.26357,-15.71822 19.55835,-20.56022 20.5806801,-13.66067 46.975227,-13.66067 67.555906,0 7.29478,4.842 15.244129,13.19855 19.55835,20.56022 8.624285,14.71624 10.654357,34.31751 5.163823,49.85899 -10.17109,28.79017 -38.528136,46.3036 -67.78215938,41.86254 z m 165.78679038,0 c -17.53046,-2.6613 -34.87064,-14.56065 -44.05428,-30.23133 -10.88612,-18.57575 -10.88612,-42.91445 0,-61.4902 4.31423,-7.36167 12.26358,-15.71822 19.55836,-20.56022 20.58067,-13.66067 46.97522,-13.66067 67.5559,0 7.29478,4.842 15.24413,13.19855 19.55835,20.56022 8.62429,14.71624 10.65436,34.31751 5.16383,49.85899 -10.17109,28.79017 -38.52814,46.3036 -67.78216,41.86254 z"
       id="path3340"
       inkscape:connector-curvature="0" />
  </g>
</svg>
