<?xml version="1.0" encoding="UTF-8" standalone="no"?>
<!-- Created with Inkscape (http://www.inkscape.org/) -->

<svg
   xmlns:dc="http://purl.org/dc/elements/1.1/"
   xmlns:cc="http://creativecommons.org/ns#"
   xmlns:rdf="http://www.w3.org/1999/02/22-rdf-syntax-ns#"
   xmlns:svg="http://www.w3.org/2000/svg"
   xmlns="http://www.w3.org/2000/svg"
   xmlns:sodipodi="http://sodipodi.sourceforge.net/DTD/sodipodi-0.dtd"
   xmlns:inkscape="http://www.inkscape.org/namespaces/inkscape"
   width="500"
   height="500"
   viewBox="0 0 500.00003 500.00003"
   id="svg2"
   version="1.1"
   inkscape:version="0.91 r"
   sodipodi:docname="app_logo.svg">
  <defs
     id="defs4" />
  <sodipodi:namedview
     id="base"
     pagecolor="#000000"
     bordercolor="#666666"
     borderopacity="1.0"
     inkscape:pageopacity="0"
     inkscape:pageshadow="2"
     inkscape:zoom="1.1162126"
     inkscape:cx="319.6919"
     inkscape:cy="191.21299"
     inkscape:document-units="px"
     inkscape:current-layer="layer1"
     showgrid="false"
     showguides="false"
     inkscape:guide-bbox="true"
     inkscape:window-width="1920"
     inkscape:window-height="1017"
     inkscape:window-x="-8"
     inkscape:window-y="-8"
     inkscape:window-maximized="1"
     units="px">
    <sodipodi:guide
       position="375,523.25901"
       orientation="1,0"
       id="guide3340"
       inkscape:label=""
       inkscape:color="rgb(0,0,255)" />
  </sodipodi:namedview>
  <metadata
     id="metadata7">
    <rdf:RDF>
      <cc:Work
         rdf:about="">
        <dc:format>image/svg+xml</dc:format>
        <dc:type
           rdf:resource="http://purl.org/dc/dcmitype/StillImage" />
        <dc:title></dc:title>
      </cc:Work>
    </rdf:RDF>
  </metadata>
  <g
     inkscape:label="Layer 1"
     inkscape:groupmode="layer"
     id="layer1"
     style="display:inline"
     transform="translate(0,-552.36214)">
    <path
       style="fill:#ffffff;fill-opacity:1;stroke:none;stroke-width:8;stroke-linecap:round;stroke-linejoin:round;stroke-miterlimit:4;stroke-dasharray:none;stroke-opacity:1"
       d="M 252.00501,558.50978 C 221.20064,558.18098 10.692143,707.71983 0.8603615,736.91494 -8.9714099,766.11003 68.196489,1012.5241 92.924492,1030.8965 c 24.727998,18.3723 282.928498,21.1295 308.043018,3.2891 25.11453,-17.8403 107.52488,-262.55312 98.31851,-291.95142 -9.20637,-29.3983 -216.47664,-183.3956 -247.28101,-183.7244 z m -37.94307,126.2321 c 19.38588,0.0134 38.77226,0.10217 58.15531,0.40818 23.13991,1.07534 49.00431,-1.32393 68.68798,13.35965 8.1673,4.9218 10.27669,14.86813 16.79783,21.06963 4.5548,6.416 2.763,15.3142 3.48569,22.76714 -0.50252,21.73115 -0.69895,44.21797 -8.9086,64.6818 -2.98091,9.62911 6.25432,17.12823 6.55889,26.55518 3.88028,30.123 1.43513,60.64604 2.16182,90.92597 -9.03399,8.90093 -18.07081,17.79792 -27.10589,26.69772 -4.37188,5.44426 -9.32894,9.46402 -16.68769,7.61928 -44.3856,-0.47469 -88.8286,1.02148 -133.17971,-0.96969 -8.38521,0.0126 -16.57003,-3.41945 -21.37632,-10.48299 -5.80684,-5.4293 -7.23799,-14.46908 -2.48793,-21.05235 10.14255,-13.29962 5.81825,-31.12503 5.52225,-46.46724 -7.89562,-0.54801 -15.82403,-0.70144 -23.69362,-1.57872 -4.28964,-1.15066 -11.46247,-0.16834 -13.23872,-5.20909 3.41981,-9.4093 13.20683,-14.75841 18.95318,-22.67211 4.34333,-3.90776 -2.64216,-3.64992 -5.07088,-3.7103 -4.52189,-0.37932 -12.40823,0.54297 -13.87365,-5.06008 3.65668,-10.02068 14.23329,-15.50251 20.02868,-24.17522 -1.80506,-0.96269 -6.18985,0.88496 -8.99499,0.78179 -4.62747,1.01831 -10.55814,-2.43749 -8.80277,-7.74237 5.2706,-14.1586 18.6354,-23.16537 27.98055,-34.46601 7.23198,-6.76635 9.18524,-16.80872 8.31038,-26.34137 -0.72787,-3.95441 1.00881,-11.66988 -4.52665,-12.35757 -15.8716,-11.29251 -29.47445,-25.56423 -42.70295,-39.79173 -1.96295,-2.75396 -8.14752,-7.78875 -3.41226,-10.56721 25.87898,-2.61933 52.03907,-1.71602 78.03497,-2.21581 6.4617,-0.008 12.92315,-0.0111 19.3851,-0.007 z m -73.11311,16.87126 c 2.23851,2.803 4.77233,5.35259 7.24998,7.94107 6.92422,6.34668 13.68056,14.95247 23.1861,17.08939 7.91853,0.99677 6.75855,11.30146 7.25646,17.0721 -0.57776,12.56068 2.09846,26.0068 -2.89395,37.92362 -7.00313,10.37009 -17.90112,17.44617 -27.58316,25.12116 10.27025,0.91081 21.57233,0.45657 32.20268,0.80123 -11.3906,10.50399 -22.78069,21.00853 -34.17014,31.51375 8.9547,-0.64438 18.11793,-2.88548 27.07566,-1.25692 4.86091,2.81099 -1.02146,8.12032 -3.21789,10.8523 -7.11593,7.03788 -14.11561,15.33641 -23.61804,19.01364 7.6752,1.39394 24.07799,-0.54212 34.84395,-0.96105 -1.32737,13.38145 -1.23057,26.66501 0.44057,39.94938 0.57991,11.52825 0.73139,9.78361 0.21164,25.26369 -1.06825,2.80834 -1.01606,2.95084 -2.87666,5.7555 -1.13515,0.29305 -4.57478,2.63565 -7.03617,1.65862 2.2733,3.31852 6.95776,7.70029 10.03809,11.34685 26.97774,-0.0119 53.95561,0.0718 80.93324,-0.0111 22.17974,-0.9478 46.37497,2.11044 66.36202,-9.37076 15.0418,-7.47497 19.71281,-25.21402 21.11931,-40.62103 1.57974,-22.07353 4.17002,-44.80833 -2.16614,-66.36634 -1.58238,-7.27287 -8.15095,-11.85602 -10.49811,-18.62491 -0.62498,-10.52897 8.43328,-18.5147 11.60602,-28.01078 4.7953,-14.32963 1.27113,-29.62976 -0.20949,-44.25358 -1.30668,-11.31792 -5.11406,-21.99876 -10.29294,-32.06014 -0.0437,-3.88111 -3.89316,-3.53137 -6.8742,-3.85715 -63.31985,-3.72118 -126.95991,-1.94314 -190.31999,-5.7879 l -0.76884,-0.12093 z m 96.46768,24.13635 c 10.52477,0.48198 21.04961,0.95319 31.57422,1.43833 11.58609,1.18136 26.08453,-0.16766 34.43793,9.61697 6.95901,10.87994 4.58781,24.72932 4.75557,36.97769 0.0273,9.45428 -3.66248,20.64254 -13.83694,23.3416 -18.47995,5.02769 -38.01813,3.11537 -56.93078,4.83548 l 0,-73.89491 0,-2.31516 z m -9.0425,0.25052 c 2.37762,-0.25148 4.84649,1.7579 4.72533,4.23942 2.61979,52.40946 2.54179,104.93108 2.81404,157.39814 -0.76614,11.92899 1.16889,24.73086 -3.48784,36.0188 -2.42185,3.47607 -8.77632,7.54857 -12.38134,3.77725 -1.17877,-13.80092 -0.0731,-27.96787 -0.40385,-41.89308 0.66159,-48.1867 -0.95453,-96.5005 2.71253,-144.5892 1.1494,-4.87133 0.28266,-12.85808 6.02113,-14.95133 z m 20.47357,12.02931 0,48.14097 c 12.44772,-0.42858 25.26603,1.02472 37.14399,-3.08399 11.56214,-7.63084 13.18004,-24.77918 7.12688,-36.33843 -4.43413,-9.81843 -16.72643,-8.60612 -25.66324,-8.71855 l -18.60763,0 z m -6.94762,79.69791 c 4.11031,-0.1835 4.90217,5.31309 8.29741,6.7619 13.81555,5.92075 30.02502,0.11079 44.1564,6.12264 12.2653,5.39197 12.95297,20.7904 14.16737,32.26314 0.51751,16.32488 4.02949,33.78958 -2.49658,49.36334 -7.96164,14.73423 -26.26631,18.22327 -41.43522,20.33968 -3.76755,0.25568 -11.73684,1.53019 -11.43107,-4.29125 -3.77202,-2.16304 -10.2863,-0.4394 -14.99237,-1.00208 -0.0338,-31.92654 -0.82761,-63.86 -0.22028,-95.78306 0.84467,-4.34385 -1.08239,-11.64885 3.95434,-13.77431 z m 33.2242,18.88622 c -0.55162,0.004 -1.09857,0.0239 -1.63918,0.0583 -7.65645,0.0315 -15.29252,0.7686 -22.93774,1.12087 -0.6261,23.68279 -1.25098,47.36561 -1.87458,71.04847 7.78594,-0.0711 15.57867,0.1531 23.36103,-0.13605 10.00944,0.45024 21.85199,-4.53444 23.64395,-15.62082 1.97945,-14.52316 2.21675,-29.97847 -1.0496,-44.11321 -1.98976,-8.9978 -11.22954,-12.41882 -19.50388,-12.35757 z"
       id="path3336"
       inkscape:connector-curvature="0" />
    <circle
       style="fill:none;fill-opacity:1;stroke:none;stroke-width:3.51300001;stroke-linecap:round;stroke-linejoin:round;stroke-miterlimit:4;stroke-dasharray:none;stroke-opacity:1"
       id="path3342"
       cx="372.04724"
       cy="542.96136"
       r="118.9515" />
  </g>
</svg>
